<?xml version="1.0" encoding="utf-8"?>
<!-- Generator: Adobe Illustrator 26.0.0, SVG Export Plug-In . SVG Version: 6.00 Build 0)  -->
<svg version="1.1" id="Layer_1" xmlns="http://www.w3.org/2000/svg" xmlns:xlink="http://www.w3.org/1999/xlink" x="0px" y="0px"
	 viewBox="0 0 467 545" style="enable-background:new 0 0 467 545;" xml:space="preserve">
<style type="text/css">
	.st0{fill:#FFFFFF;}
</style>
<path class="st0" d="M223.1,109.7c-101.3,5.2-181.9,90-181.9,193.8c0,35,9.2,67.9,25.2,96.2L47,437.4c-26.6-37.8-42.3-84-42.3-134
	c0-127.6,102.2-231,228.4-231c1.8,0,3.6,0,5.4,0.1l33-67.2H342v95c71.2,39.1,119.5,115.4,119.5,203.1c0,127.6-102.2,231-228.4,231
	c-38.5,0-74.8-9.6-106.6-26.7l16.1-33.2c27,14.6,57.8,22.9,90.5,22.9c105.9,0,191.8-86.9,191.8-194c0-67-33.5-126-84.6-160.9v183.6
	l-64.4-60.9V126.1L196.3,315h79.5v-30.3l74.6,70.1l-77,59.1v-31.3H168.5L99.4,538.7L13.9,537L223.1,109.7z"/>
<path class="st0" d="M340.1,435.4h-66.8l66.8-57.3L340.1,435.4L340.1,435.4z"/>
</svg>
